<mxfile host="65bd71144e">
    <diagram id="AHJm7Hb1WLh4lojJLg93" name="Page-1">
        <mxGraphModel dx="2169" dy="867" grid="1" gridSize="10" guides="1" tooltips="1" connect="1" arrows="1" fold="1" page="1" pageScale="1" pageWidth="4681" pageHeight="3300" math="0" shadow="0">
            <root>
                <mxCell id="0"/>
                <mxCell id="1" parent="0"/>
                <mxCell id="174" value="" style="rounded=0;whiteSpace=wrap;html=1;" parent="1" vertex="1">
                    <mxGeometry x="360" y="920" width="1600" height="680" as="geometry"/>
                </mxCell>
                <mxCell id="136" value="" style="rounded=0;whiteSpace=wrap;html=1;" parent="1" vertex="1">
                    <mxGeometry x="360" y="200" width="2040" height="680" as="geometry"/>
                </mxCell>
                <mxCell id="115" style="html=1;exitX=0.5;exitY=1;exitDx=0;exitDy=0;entryX=0.5;entryY=0;entryDx=0;entryDy=0;" parent="1" source="2" target="4" edge="1">
                    <mxGeometry relative="1" as="geometry"/>
                </mxCell>
                <mxCell id="125" style="edgeStyle=none;html=1;exitX=1;exitY=0.5;exitDx=0;exitDy=0;entryX=0;entryY=0.5;entryDx=0;entryDy=0;" parent="1" source="2" target="116" edge="1">
                    <mxGeometry relative="1" as="geometry"/>
                </mxCell>
                <mxCell id="127" value="New port, create thread, close connection" style="edgeLabel;html=1;align=center;verticalAlign=middle;resizable=0;points=[];" parent="125" vertex="1" connectable="0">
                    <mxGeometry x="-0.0888" y="-4" relative="1" as="geometry">
                        <mxPoint x="11" y="-14" as="offset"/>
                    </mxGeometry>
                </mxCell>
                <mxCell id="2" value="SRV" style="rounded=0;whiteSpace=wrap;html=1;" parent="1" vertex="1">
                    <mxGeometry x="1840" y="240" width="160" height="120" as="geometry"/>
                </mxCell>
                <mxCell id="109" style="edgeStyle=orthogonalEdgeStyle;curved=1;html=1;exitX=0;exitY=0.5;exitDx=0;exitDy=0;entryX=1;entryY=0.5;entryDx=0;entryDy=0;" parent="1" source="4" target="105" edge="1">
                    <mxGeometry relative="1" as="geometry"/>
                </mxCell>
                <mxCell id="4" value="Thread" style="rounded=0;whiteSpace=wrap;html=1;" parent="1" vertex="1">
                    <mxGeometry x="1880" y="400" width="80" height="40" as="geometry"/>
                </mxCell>
                <mxCell id="108" style="edgeStyle=orthogonalEdgeStyle;curved=1;html=1;exitX=0;exitY=0.5;exitDx=0;exitDy=0;entryX=1;entryY=0.5;entryDx=0;entryDy=0;" parent="1" source="5" target="105" edge="1">
                    <mxGeometry relative="1" as="geometry"/>
                </mxCell>
                <mxCell id="5" value="Thread" style="rounded=0;whiteSpace=wrap;html=1;" parent="1" vertex="1">
                    <mxGeometry x="1880" y="440" width="80" height="40" as="geometry"/>
                </mxCell>
                <mxCell id="107" style="edgeStyle=orthogonalEdgeStyle;curved=1;html=1;exitX=0;exitY=0.5;exitDx=0;exitDy=0;entryX=1;entryY=0.5;entryDx=0;entryDy=0;" parent="1" source="6" target="105" edge="1">
                    <mxGeometry relative="1" as="geometry">
                        <mxPoint x="1830" y="540" as="targetPoint"/>
                    </mxGeometry>
                </mxCell>
                <mxCell id="6" value="Thread" style="rounded=0;whiteSpace=wrap;html=1;" parent="1" vertex="1">
                    <mxGeometry x="1880" y="480" width="80" height="40" as="geometry"/>
                </mxCell>
                <mxCell id="106" style="edgeStyle=orthogonalEdgeStyle;curved=1;html=1;exitX=0;exitY=0.5;exitDx=0;exitDy=0;entryX=1;entryY=0.5;entryDx=0;entryDy=0;" parent="1" source="7" target="105" edge="1">
                    <mxGeometry relative="1" as="geometry"/>
                </mxCell>
                <mxCell id="7" value="Thread" style="rounded=0;whiteSpace=wrap;html=1;" parent="1" vertex="1">
                    <mxGeometry x="1880" y="520" width="80" height="40" as="geometry"/>
                </mxCell>
                <mxCell id="110" style="edgeStyle=orthogonalEdgeStyle;curved=1;html=1;exitX=0;exitY=0.5;exitDx=0;exitDy=0;entryX=1;entryY=0.5;entryDx=0;entryDy=0;" parent="1" source="8" target="105" edge="1">
                    <mxGeometry relative="1" as="geometry"/>
                </mxCell>
                <mxCell id="8" value="Thread" style="rounded=0;whiteSpace=wrap;html=1;" parent="1" vertex="1">
                    <mxGeometry x="1880" y="560" width="80" height="40" as="geometry"/>
                </mxCell>
                <mxCell id="111" style="edgeStyle=orthogonalEdgeStyle;curved=1;html=1;exitX=0;exitY=0.5;exitDx=0;exitDy=0;entryX=1;entryY=0.5;entryDx=0;entryDy=0;" parent="1" source="9" target="105" edge="1">
                    <mxGeometry relative="1" as="geometry"/>
                </mxCell>
                <mxCell id="9" value="Thread" style="rounded=0;whiteSpace=wrap;html=1;" parent="1" vertex="1">
                    <mxGeometry x="1880" y="600" width="80" height="40" as="geometry"/>
                </mxCell>
                <mxCell id="112" style="edgeStyle=orthogonalEdgeStyle;curved=1;html=1;exitX=0;exitY=0.5;exitDx=0;exitDy=0;entryX=1;entryY=0.5;entryDx=0;entryDy=0;" parent="1" source="10" target="105" edge="1">
                    <mxGeometry relative="1" as="geometry"/>
                </mxCell>
                <mxCell id="10" value="Thread" style="rounded=0;whiteSpace=wrap;html=1;" parent="1" vertex="1">
                    <mxGeometry x="1880" y="640" width="80" height="40" as="geometry"/>
                </mxCell>
                <mxCell id="113" style="edgeStyle=orthogonalEdgeStyle;curved=1;html=1;exitX=0;exitY=0.5;exitDx=0;exitDy=0;entryX=1;entryY=0.5;entryDx=0;entryDy=0;" parent="1" source="11" target="105" edge="1">
                    <mxGeometry relative="1" as="geometry"/>
                </mxCell>
                <mxCell id="11" value="Thread" style="rounded=0;whiteSpace=wrap;html=1;" parent="1" vertex="1">
                    <mxGeometry x="1880" y="680" width="80" height="40" as="geometry"/>
                </mxCell>
                <mxCell id="14" value="DB" style="rounded=0;whiteSpace=wrap;html=1;" parent="1" vertex="1">
                    <mxGeometry x="1520" y="440" width="80" height="40" as="geometry"/>
                </mxCell>
                <mxCell id="95" style="edgeStyle=orthogonalEdgeStyle;curved=1;html=1;exitX=0;exitY=0.5;exitDx=0;exitDy=0;exitPerimeter=0;entryX=1.001;entryY=0.11;entryDx=0;entryDy=0;entryPerimeter=0;" parent="1" source="19" target="67" edge="1">
                    <mxGeometry relative="1" as="geometry"/>
                </mxCell>
                <mxCell id="96" style="edgeStyle=orthogonalEdgeStyle;curved=1;html=1;exitX=0;exitY=0.5;exitDx=0;exitDy=0;exitPerimeter=0;entryX=1;entryY=0.128;entryDx=0;entryDy=0;entryPerimeter=0;" parent="1" source="19" target="80" edge="1">
                    <mxGeometry relative="1" as="geometry"/>
                </mxCell>
                <mxCell id="130" style="edgeStyle=orthogonalEdgeStyle;html=1;exitX=0;exitY=0.5;exitDx=0;exitDy=0;exitPerimeter=0;entryX=1.004;entryY=0.08;entryDx=0;entryDy=0;entryPerimeter=0;startArrow=none;startFill=0;curved=1;" parent="1" source="19" target="48" edge="1">
                    <mxGeometry relative="1" as="geometry">
                        <Array as="points">
                            <mxPoint x="1490" y="560"/>
                            <mxPoint x="1490" y="313"/>
                        </Array>
                    </mxGeometry>
                </mxCell>
                <mxCell id="19" value="" style="shape=cylinder3;whiteSpace=wrap;html=1;boundedLbl=1;backgroundOutline=1;size=15;" parent="1" vertex="1">
                    <mxGeometry x="1520" y="520" width="80" height="80" as="geometry"/>
                </mxCell>
                <mxCell id="48" value="Users" style="shape=table;startSize=30;container=1;collapsible=0;childLayout=tableLayout;fontStyle=1;align=center;fillColor=#60a917;fontColor=#ffffff;strokeColor=#2D7600;" parent="1" vertex="1">
                    <mxGeometry x="1079" y="300" width="361" height="160" as="geometry"/>
                </mxCell>
                <mxCell id="49" value="" style="shape=tableRow;horizontal=0;startSize=0;swimlaneHead=0;swimlaneBody=0;top=0;left=0;bottom=0;right=0;collapsible=0;dropTarget=0;fillColor=none;points=[[0,0.5],[1,0.5]];portConstraint=eastwest;" parent="48" vertex="1">
                    <mxGeometry y="30" width="361" height="43" as="geometry"/>
                </mxCell>
                <mxCell id="50" value="UserID&amp;nbsp;" style="shape=partialRectangle;html=1;whiteSpace=wrap;connectable=0;fillColor=none;top=0;left=0;bottom=0;right=0;overflow=hidden;" parent="49" vertex="1">
                    <mxGeometry width="140" height="43" as="geometry">
                        <mxRectangle width="140" height="43" as="alternateBounds"/>
                    </mxGeometry>
                </mxCell>
                <mxCell id="51" value="Username" style="shape=partialRectangle;html=1;whiteSpace=wrap;connectable=0;fillColor=none;top=0;left=0;bottom=0;right=0;overflow=hidden;" parent="49" vertex="1">
                    <mxGeometry x="140" width="101" height="43" as="geometry">
                        <mxRectangle width="101" height="43" as="alternateBounds"/>
                    </mxGeometry>
                </mxCell>
                <mxCell id="52" value="Password" style="shape=partialRectangle;html=1;whiteSpace=wrap;connectable=0;fillColor=none;top=0;left=0;bottom=0;right=0;overflow=hidden;" parent="49" vertex="1">
                    <mxGeometry x="241" width="120" height="43" as="geometry">
                        <mxRectangle width="120" height="43" as="alternateBounds"/>
                    </mxGeometry>
                </mxCell>
                <mxCell id="62" style="shape=tableRow;horizontal=0;startSize=0;swimlaneHead=0;swimlaneBody=0;top=0;left=0;bottom=0;right=0;collapsible=0;dropTarget=0;fillColor=none;points=[[0,0.5],[1,0.5]];portConstraint=eastwest;" parent="48" vertex="1">
                    <mxGeometry y="73" width="361" height="87" as="geometry"/>
                </mxCell>
                <mxCell id="63" value="- primary key&lt;br&gt;- autoincrement 1 INT&lt;br&gt;-not null" style="shape=partialRectangle;html=1;whiteSpace=wrap;connectable=0;fillColor=none;top=0;left=0;bottom=0;right=0;overflow=hidden;" parent="62" vertex="1">
                    <mxGeometry width="140" height="87" as="geometry">
                        <mxRectangle width="140" height="87" as="alternateBounds"/>
                    </mxGeometry>
                </mxCell>
                <mxCell id="64" value="-varchar(255)&lt;br&gt;-not null&lt;br&gt;-cyprhated" style="shape=partialRectangle;html=1;whiteSpace=wrap;connectable=0;fillColor=none;top=0;left=0;bottom=0;right=0;overflow=hidden;" parent="62" vertex="1">
                    <mxGeometry x="140" width="101" height="87" as="geometry">
                        <mxRectangle width="101" height="87" as="alternateBounds"/>
                    </mxGeometry>
                </mxCell>
                <mxCell id="65" value="-varchar(255)&lt;br&gt;-not null&lt;br&gt;-cyprathed" style="shape=partialRectangle;html=1;whiteSpace=wrap;connectable=0;fillColor=none;top=0;left=0;bottom=0;right=0;overflow=hidden;" parent="62" vertex="1">
                    <mxGeometry x="241" width="120" height="87" as="geometry">
                        <mxRectangle width="120" height="87" as="alternateBounds"/>
                    </mxGeometry>
                </mxCell>
                <mxCell id="67" value="Tokens" style="shape=table;startSize=30;container=1;collapsible=0;childLayout=tableLayout;fontStyle=1;align=center;fillColor=#60a917;fontColor=#ffffff;strokeColor=#2D7600;" parent="1" vertex="1">
                    <mxGeometry x="880" y="480" width="560" height="160" as="geometry"/>
                </mxCell>
                <mxCell id="68" value="" style="shape=tableRow;horizontal=0;startSize=0;swimlaneHead=0;swimlaneBody=0;top=0;left=0;bottom=0;right=0;collapsible=0;dropTarget=0;fillColor=none;points=[[0,0.5],[1,0.5]];portConstraint=eastwest;" parent="67" vertex="1">
                    <mxGeometry y="30" width="560" height="43" as="geometry"/>
                </mxCell>
                <mxCell id="69" value="Token" style="shape=partialRectangle;html=1;whiteSpace=wrap;connectable=0;fillColor=none;top=0;left=0;bottom=0;right=0;overflow=hidden;" parent="68" vertex="1">
                    <mxGeometry width="130" height="43" as="geometry">
                        <mxRectangle width="130" height="43" as="alternateBounds"/>
                    </mxGeometry>
                </mxCell>
                <mxCell id="70" value="UserID" style="shape=partialRectangle;html=1;whiteSpace=wrap;connectable=0;fillColor=none;top=0;left=0;bottom=0;right=0;overflow=hidden;" parent="68" vertex="1">
                    <mxGeometry x="130" width="250" height="43" as="geometry">
                        <mxRectangle width="250" height="43" as="alternateBounds"/>
                    </mxGeometry>
                </mxCell>
                <mxCell id="78" value="Valid" style="shape=partialRectangle;html=1;whiteSpace=wrap;connectable=0;fillColor=none;top=0;left=0;bottom=0;right=0;overflow=hidden;" parent="68" vertex="1">
                    <mxGeometry x="380" width="90" height="43" as="geometry">
                        <mxRectangle width="90" height="43" as="alternateBounds"/>
                    </mxGeometry>
                </mxCell>
                <mxCell id="76" value="Revoked" style="shape=partialRectangle;html=1;whiteSpace=wrap;connectable=0;fillColor=none;top=0;left=0;bottom=0;right=0;overflow=hidden;" parent="68" vertex="1">
                    <mxGeometry x="470" width="90" height="43" as="geometry">
                        <mxRectangle width="90" height="43" as="alternateBounds"/>
                    </mxGeometry>
                </mxCell>
                <mxCell id="72" style="shape=tableRow;horizontal=0;startSize=0;swimlaneHead=0;swimlaneBody=0;top=0;left=0;bottom=0;right=0;collapsible=0;dropTarget=0;fillColor=none;points=[[0,0.5],[1,0.5]];portConstraint=eastwest;" parent="67" vertex="1">
                    <mxGeometry y="73" width="560" height="87" as="geometry"/>
                </mxCell>
                <mxCell id="73" value="- primary key&lt;br&gt;-not null" style="shape=partialRectangle;html=1;whiteSpace=wrap;connectable=0;fillColor=none;top=0;left=0;bottom=0;right=0;overflow=hidden;" parent="72" vertex="1">
                    <mxGeometry width="130" height="87" as="geometry">
                        <mxRectangle width="130" height="87" as="alternateBounds"/>
                    </mxGeometry>
                </mxCell>
                <mxCell id="74" value="-varchar(255)&lt;br&gt;-not null&lt;br&gt;-cyprhated&lt;br&gt;-foreing key (UserID - Users)" style="shape=partialRectangle;html=1;whiteSpace=wrap;connectable=0;fillColor=none;top=0;left=0;bottom=0;right=0;overflow=hidden;" parent="72" vertex="1">
                    <mxGeometry x="130" width="250" height="87" as="geometry">
                        <mxRectangle width="250" height="87" as="alternateBounds"/>
                    </mxGeometry>
                </mxCell>
                <mxCell id="79" value="- bool&lt;br&gt;-not&amp;nbsp; null&lt;br&gt;-default true" style="shape=partialRectangle;html=1;whiteSpace=wrap;connectable=0;fillColor=none;top=0;left=0;bottom=0;right=0;overflow=hidden;" parent="72" vertex="1">
                    <mxGeometry x="380" width="90" height="87" as="geometry">
                        <mxRectangle width="90" height="87" as="alternateBounds"/>
                    </mxGeometry>
                </mxCell>
                <mxCell id="77" value="-bool&amp;nbsp;&lt;br&gt;-not null&lt;br&gt;-default false" style="shape=partialRectangle;html=1;whiteSpace=wrap;connectable=0;fillColor=none;top=0;left=0;bottom=0;right=0;overflow=hidden;" parent="72" vertex="1">
                    <mxGeometry x="470" width="90" height="87" as="geometry">
                        <mxRectangle width="90" height="87" as="alternateBounds"/>
                    </mxGeometry>
                </mxCell>
                <mxCell id="80" value="Messages" style="shape=table;startSize=30;container=1;collapsible=0;childLayout=tableLayout;fontStyle=1;align=center;fillColor=#60a917;fontColor=#ffffff;strokeColor=#2D7600;" parent="1" vertex="1">
                    <mxGeometry x="400" y="680" width="1040" height="160" as="geometry"/>
                </mxCell>
                <mxCell id="81" value="" style="shape=tableRow;horizontal=0;startSize=0;swimlaneHead=0;swimlaneBody=0;top=0;left=0;bottom=0;right=0;collapsible=0;dropTarget=0;fillColor=none;points=[[0,0.5],[1,0.5]];portConstraint=eastwest;" parent="80" vertex="1">
                    <mxGeometry y="30" width="1040" height="43" as="geometry"/>
                </mxCell>
                <mxCell id="82" value="MessageID" style="shape=partialRectangle;html=1;whiteSpace=wrap;connectable=0;fillColor=none;top=0;left=0;bottom=0;right=0;overflow=hidden;" parent="81" vertex="1">
                    <mxGeometry width="140" height="43" as="geometry">
                        <mxRectangle width="140" height="43" as="alternateBounds"/>
                    </mxGeometry>
                </mxCell>
                <mxCell id="83" value="SenderUserID" style="shape=partialRectangle;html=1;whiteSpace=wrap;connectable=0;fillColor=none;top=0;left=0;bottom=0;right=0;overflow=hidden;" parent="81" vertex="1">
                    <mxGeometry x="140" width="180" height="43" as="geometry">
                        <mxRectangle width="180" height="43" as="alternateBounds"/>
                    </mxGeometry>
                </mxCell>
                <mxCell id="84" value="ReceiverUserID" style="shape=partialRectangle;html=1;whiteSpace=wrap;connectable=0;fillColor=none;top=0;left=0;bottom=0;right=0;overflow=hidden;" parent="81" vertex="1">
                    <mxGeometry x="320" width="240" height="43" as="geometry">
                        <mxRectangle width="240" height="43" as="alternateBounds"/>
                    </mxGeometry>
                </mxCell>
                <mxCell id="89" value="Text" style="shape=partialRectangle;html=1;whiteSpace=wrap;connectable=0;fillColor=none;top=0;left=0;bottom=0;right=0;overflow=hidden;" parent="81" vertex="1">
                    <mxGeometry x="560" width="240" height="43" as="geometry">
                        <mxRectangle width="240" height="43" as="alternateBounds"/>
                    </mxGeometry>
                </mxCell>
                <mxCell id="91" value="SendingData" style="shape=partialRectangle;html=1;whiteSpace=wrap;connectable=0;fillColor=none;top=0;left=0;bottom=0;right=0;overflow=hidden;" parent="81" vertex="1">
                    <mxGeometry x="800" width="240" height="43" as="geometry">
                        <mxRectangle width="240" height="43" as="alternateBounds"/>
                    </mxGeometry>
                </mxCell>
                <mxCell id="85" style="shape=tableRow;horizontal=0;startSize=0;swimlaneHead=0;swimlaneBody=0;top=0;left=0;bottom=0;right=0;collapsible=0;dropTarget=0;fillColor=none;points=[[0,0.5],[1,0.5]];portConstraint=eastwest;" parent="80" vertex="1">
                    <mxGeometry y="73" width="1040" height="87" as="geometry"/>
                </mxCell>
                <mxCell id="86" value="- primary key&lt;br&gt;- autoincrement 1 INT&lt;br&gt;-not null" style="shape=partialRectangle;html=1;whiteSpace=wrap;connectable=0;fillColor=none;top=0;left=0;bottom=0;right=0;overflow=hidden;" parent="85" vertex="1">
                    <mxGeometry width="140" height="87" as="geometry">
                        <mxRectangle width="140" height="87" as="alternateBounds"/>
                    </mxGeometry>
                </mxCell>
                <mxCell id="87" value="-varchar(255)&lt;br&gt;-not null&lt;br&gt;-cyprhated&lt;br&gt;-foreing key (UserID - Users)" style="shape=partialRectangle;html=1;whiteSpace=wrap;connectable=0;fillColor=none;top=0;left=0;bottom=0;right=0;overflow=hidden;" parent="85" vertex="1">
                    <mxGeometry x="140" width="180" height="87" as="geometry">
                        <mxRectangle width="180" height="87" as="alternateBounds"/>
                    </mxGeometry>
                </mxCell>
                <mxCell id="88" value="-varchar(255)&lt;br&gt;-not null&lt;br&gt;-cyprathed&lt;br&gt;-foreing key (UserID - Users)" style="shape=partialRectangle;html=1;whiteSpace=wrap;connectable=0;fillColor=none;top=0;left=0;bottom=0;right=0;overflow=hidden;" parent="85" vertex="1">
                    <mxGeometry x="320" width="240" height="87" as="geometry">
                        <mxRectangle width="240" height="87" as="alternateBounds"/>
                    </mxGeometry>
                </mxCell>
                <mxCell id="90" value="-varchar(2048)&lt;br&gt;-not null&lt;br&gt;-cyprathed" style="shape=partialRectangle;html=1;whiteSpace=wrap;connectable=0;fillColor=none;top=0;left=0;bottom=0;right=0;overflow=hidden;" parent="85" vertex="1">
                    <mxGeometry x="560" width="240" height="87" as="geometry">
                        <mxRectangle width="240" height="87" as="alternateBounds"/>
                    </mxGeometry>
                </mxCell>
                <mxCell id="92" value="-varchar(10)&lt;br&gt;-not null&lt;br&gt;-cyprathed" style="shape=partialRectangle;html=1;whiteSpace=wrap;connectable=0;fillColor=none;top=0;left=0;bottom=0;right=0;overflow=hidden;" parent="85" vertex="1">
                    <mxGeometry x="800" width="240" height="87" as="geometry">
                        <mxRectangle width="240" height="87" as="alternateBounds"/>
                    </mxGeometry>
                </mxCell>
                <mxCell id="114" style="edgeStyle=orthogonalEdgeStyle;curved=1;html=1;exitX=0;exitY=0.5;exitDx=0;exitDy=0;entryX=1;entryY=0.5;entryDx=0;entryDy=0;entryPerimeter=0;" parent="1" source="105" target="19" edge="1">
                    <mxGeometry relative="1" as="geometry"/>
                </mxCell>
                <mxCell id="105" value="my semaphore" style="rounded=0;whiteSpace=wrap;html=1;" parent="1" vertex="1">
                    <mxGeometry x="1680" y="540" width="120" height="40" as="geometry"/>
                </mxCell>
                <mxCell id="123" style="edgeStyle=none;html=1;exitX=0;exitY=0.25;exitDx=0;exitDy=0;entryX=1;entryY=0.25;entryDx=0;entryDy=0;" parent="1" edge="1">
                    <mxGeometry relative="1" as="geometry">
                        <mxPoint x="2241" y="270" as="sourcePoint"/>
                        <mxPoint x="2001" y="270" as="targetPoint"/>
                    </mxGeometry>
                </mxCell>
                <mxCell id="124" value="New connection with main server" style="edgeLabel;html=1;align=center;verticalAlign=middle;resizable=0;points=[];" parent="123" vertex="1" connectable="0">
                    <mxGeometry x="0.1388" y="-3" relative="1" as="geometry">
                        <mxPoint x="17" y="-7" as="offset"/>
                    </mxGeometry>
                </mxCell>
                <mxCell id="128" style="html=1;exitX=0;exitY=0.75;exitDx=0;exitDy=0;entryX=1;entryY=0.5;entryDx=0;entryDy=0;startArrow=classic;startFill=1;" parent="1" source="116" target="4" edge="1">
                    <mxGeometry relative="1" as="geometry"/>
                </mxCell>
                <mxCell id="129" value="New connection with created thread" style="edgeLabel;html=1;align=center;verticalAlign=middle;resizable=0;points=[];rotation=0;" parent="128" vertex="1" connectable="0">
                    <mxGeometry x="-0.1295" y="1" relative="1" as="geometry">
                        <mxPoint x="2" as="offset"/>
                    </mxGeometry>
                </mxCell>
                <mxCell id="116" value="client" style="rounded=0;whiteSpace=wrap;html=1;" parent="1" vertex="1">
                    <mxGeometry x="2240" y="240" width="120" height="120" as="geometry"/>
                </mxCell>
                <mxCell id="138" value="Main Functionality" style="rounded=0;whiteSpace=wrap;html=1;" parent="1" vertex="1">
                    <mxGeometry x="400" y="240" width="120" height="80" as="geometry"/>
                </mxCell>
                <mxCell id="139" value="Classes" style="rounded=0;whiteSpace=wrap;html=1;" parent="1" vertex="1">
                    <mxGeometry x="400" y="960" width="120" height="80" as="geometry"/>
                </mxCell>
                <mxCell id="140" value="Message" style="rounded=0;whiteSpace=wrap;html=1;fontStyle=1;fillColor=#60a917;fontColor=#ffffff;strokeColor=#2D7600;" parent="1" vertex="1">
                    <mxGeometry x="560" y="1400" width="160" height="40" as="geometry"/>
                </mxCell>
                <mxCell id="141" value="Login Request" style="rounded=0;whiteSpace=wrap;html=1;fontStyle=1;spacingLeft=0;spacing=0;fillColor=#60a917;fontColor=#ffffff;strokeColor=#2D7600;" parent="1" vertex="1">
                    <mxGeometry x="560" y="1040" width="160" height="40" as="geometry"/>
                </mxCell>
                <mxCell id="142" value="Register Request" style="rounded=0;whiteSpace=wrap;html=1;fontStyle=1;spacingLeft=0;spacing=0;fillColor=#60a917;fontColor=#ffffff;strokeColor=#2D7600;" parent="1" vertex="1">
                    <mxGeometry x="760" y="1040" width="160" height="40" as="geometry"/>
                </mxCell>
                <mxCell id="143" value="Refresh Token Request" style="rounded=0;whiteSpace=wrap;html=1;fontStyle=1;spacingLeft=0;spacing=0;fillColor=#60a917;fontColor=#ffffff;strokeColor=#2D7600;" parent="1" vertex="1">
                    <mxGeometry x="960" y="1040" width="160" height="40" as="geometry"/>
                </mxCell>
                <mxCell id="145" value="Get All Messages Request" style="rounded=0;whiteSpace=wrap;html=1;fontStyle=1;spacingLeft=0;spacing=0;fillColor=#60a917;fontColor=#ffffff;strokeColor=#2D7600;" parent="1" vertex="1">
                    <mxGeometry x="1161" y="1040" width="160" height="40" as="geometry"/>
                </mxCell>
                <mxCell id="146" value="Delete History Request" style="rounded=0;whiteSpace=wrap;html=1;fontStyle=1;spacingLeft=0;spacing=0;fillColor=#60a917;fontColor=#ffffff;strokeColor=#2D7600;" parent="1" vertex="1">
                    <mxGeometry x="1361" y="1040" width="160" height="40" as="geometry"/>
                </mxCell>
                <mxCell id="147" value="Search Messages Request" style="rounded=0;whiteSpace=wrap;html=1;fontStyle=1;spacingLeft=0;spacing=0;fillColor=#60a917;fontColor=#ffffff;strokeColor=#2D7600;" parent="1" vertex="1">
                    <mxGeometry x="1561" y="1040" width="160" height="40" as="geometry"/>
                </mxCell>
                <mxCell id="149" value="Login Response" style="rounded=0;whiteSpace=wrap;html=1;fontStyle=1;spacingLeft=0;spacing=0;fillColor=#60a917;fontColor=#ffffff;strokeColor=#2D7600;" parent="1" vertex="1">
                    <mxGeometry x="560" y="1240" width="160" height="40" as="geometry"/>
                </mxCell>
                <mxCell id="150" value="Register Response" style="rounded=0;whiteSpace=wrap;html=1;fontStyle=1;spacingLeft=0;spacing=0;fillColor=#60a917;fontColor=#ffffff;strokeColor=#2D7600;" parent="1" vertex="1">
                    <mxGeometry x="760" y="1240" width="160" height="40" as="geometry"/>
                </mxCell>
                <mxCell id="151" value="Refresh Token Response" style="rounded=0;whiteSpace=wrap;html=1;fontStyle=1;spacingLeft=0;spacing=0;fillColor=#60a917;fontColor=#ffffff;strokeColor=#2D7600;" parent="1" vertex="1">
                    <mxGeometry x="960" y="1240" width="160" height="40" as="geometry"/>
                </mxCell>
                <mxCell id="153" value="Get All Messages Response" style="rounded=0;whiteSpace=wrap;html=1;fontStyle=1;spacingLeft=0;spacing=0;fillColor=#60a917;fontColor=#ffffff;strokeColor=#2D7600;" parent="1" vertex="1">
                    <mxGeometry x="1161" y="1240" width="160" height="40" as="geometry"/>
                </mxCell>
                <mxCell id="156" value="Search Messages Response" style="rounded=0;whiteSpace=wrap;html=1;fontStyle=1;spacingLeft=0;spacing=0;fillColor=#60a917;fontColor=#ffffff;strokeColor=#2D7600;" parent="1" vertex="1">
                    <mxGeometry x="1561" y="1240" width="160" height="40" as="geometry"/>
                </mxCell>
                <mxCell id="158" value="- string Username&lt;br&gt;- string Password&lt;br&gt;" style="rounded=0;whiteSpace=wrap;html=1;align=left;" parent="1" vertex="1">
                    <mxGeometry x="560" y="1080" width="160" height="80" as="geometry"/>
                </mxCell>
                <mxCell id="159" value="- string Auth_Token&lt;br&gt;- string Refresh_Token" style="rounded=0;whiteSpace=wrap;html=1;align=left;" parent="1" vertex="1">
                    <mxGeometry x="560" y="1280" width="160" height="80" as="geometry"/>
                </mxCell>
                <mxCell id="160" value="- string Username&lt;br&gt;- string Password&lt;br&gt;" style="rounded=0;whiteSpace=wrap;html=1;align=left;" parent="1" vertex="1">
                    <mxGeometry x="760" y="1080" width="160" height="80" as="geometry"/>
                </mxCell>
                <mxCell id="161" value="- string Auth_Token&lt;br&gt;- string Refresh_Token" style="rounded=0;whiteSpace=wrap;html=1;align=left;" parent="1" vertex="1">
                    <mxGeometry x="759" y="1280" width="160" height="80" as="geometry"/>
                </mxCell>
                <mxCell id="162" value="- string Username&lt;br&gt;- string Refresh Token" style="rounded=0;whiteSpace=wrap;html=1;align=left;" parent="1" vertex="1">
                    <mxGeometry x="960.5" y="1080" width="159.5" height="80" as="geometry"/>
                </mxCell>
                <mxCell id="164" value="- string Auth_Token&lt;br&gt;- string Refresh_Token" style="rounded=0;whiteSpace=wrap;html=1;align=left;" parent="1" vertex="1">
                    <mxGeometry x="960" y="1280" width="160" height="80" as="geometry"/>
                </mxCell>
                <mxCell id="165" value="- string Username&lt;br&gt;- string Chatter_Username&lt;br&gt;- string Auth_Token" style="rounded=0;whiteSpace=wrap;html=1;align=left;" parent="1" vertex="1">
                    <mxGeometry x="1161" y="1080" width="159.5" height="80" as="geometry"/>
                </mxCell>
                <mxCell id="166" value="- Vector&amp;lt;Message&amp;gt; msg_list" style="rounded=0;whiteSpace=wrap;html=1;align=left;" parent="1" vertex="1">
                    <mxGeometry x="1161" y="1280" width="159.5" height="80" as="geometry"/>
                </mxCell>
                <mxCell id="167" value="- string Username&lt;br&gt;- string Auth_Token" style="rounded=0;whiteSpace=wrap;html=1;align=left;" parent="1" vertex="1">
                    <mxGeometry x="1361" y="1080" width="160" height="80" as="geometry"/>
                </mxCell>
                <mxCell id="169" value="- string Username&lt;br&gt;- string Search_Term&lt;br&gt;- string Chatter_Username&lt;br&gt;- string Auth_Token" style="rounded=0;whiteSpace=wrap;html=1;align=left;" parent="1" vertex="1">
                    <mxGeometry x="1561" y="1080" width="160" height="80" as="geometry"/>
                </mxCell>
                <mxCell id="170" value="- Vector&amp;lt;Message&amp;gt; msg_list" style="rounded=0;whiteSpace=wrap;html=1;align=left;" parent="1" vertex="1">
                    <mxGeometry x="1561" y="1280" width="160" height="80" as="geometry"/>
                </mxCell>
                <mxCell id="173" value="- string Username&lt;br&gt;&lt;div style=&quot;&quot;&gt;&lt;span style=&quot;background-color: initial;&quot;&gt;- string Receiver_Username&lt;/span&gt;&lt;/div&gt;&lt;div style=&quot;&quot;&gt;&lt;span style=&quot;background-color: initial;&quot;&gt;- string Auth_Token&lt;/span&gt;&lt;/div&gt;&lt;div style=&quot;&quot;&gt;&lt;span style=&quot;background-color: initial;&quot;&gt;- string Text&lt;/span&gt;&lt;/div&gt;&lt;div style=&quot;&quot;&gt;&lt;span style=&quot;background-color: initial;&quot;&gt;- string Sending_data&lt;/span&gt;&lt;/div&gt;" style="rounded=0;whiteSpace=wrap;html=1;align=left;" parent="1" vertex="1">
                    <mxGeometry x="560" y="1440" width="160" height="120" as="geometry"/>
                </mxCell>
            </root>
        </mxGraphModel>
    </diagram>
</mxfile>